<svg xmlns="http://www.w3.org/2000/svg" viewBox="0 0 70 70" width="70" height="70">
	<style>
		tspan { white-space:pre }
		.shp0 { fill: #dfffe3 } 
		.shp1 { fill: #0fff2d } 
	</style>
	<g id="Features">
		<g id="03">
			<g id="Icon">
				<path id="Ellipse 1" class="shp0" d="M35 0C54.33 0 70 15.67 70 35C70 54.33 54.33 70 35 70C15.67 70 0 54.33 0 35C0 15.67 15.67 0 35 0Z" />
				<path id="Forma 1" class="shp1" d="M30.88 19.19C30.76 19.07 30.59 19 30.42 19C30.25 19 30.09 19.07 29.97 19.19C29.85 19.31 29.78 19.47 29.78 19.64C29.78 19.81 29.85 19.98 29.97 20.1C30.09 20.22 30.25 20.29 30.42 20.29C30.59 20.29 30.76 20.22 30.88 20.1C31 19.98 31.07 19.81 31.07 19.64C31.07 19.47 31 19.31 30.88 19.19ZM52 31.02C51.99 30.83 51.9 30.65 51.73 30.53L48.52 28.2L48.52 20.93C48.52 19.87 47.65 19 46.59 19L32.95 19C32.6 19 32.31 19.29 32.31 19.64C32.31 20 32.6 20.29 32.95 20.29L46.59 20.29C46.94 20.29 47.23 20.58 47.23 20.93L47.23 33.59L39.36 40.01L37.39 38.58C36.26 37.77 34.74 37.77 33.61 38.58L31.64 40.01L23.77 33.59L23.77 20.93C23.77 20.58 24.06 20.29 24.41 20.29L27.93 20.29C28.28 20.29 28.57 20 28.57 19.64C28.57 19.29 28.28 19 27.93 19L24.41 19C23.35 19 22.48 19.87 22.48 20.93L22.48 28.2L19.27 30.53C19.27 30.53 19.27 30.53 19.27 30.53C19.11 30.65 19 30.84 19 31.05L19 48.78C19 50.55 20.45 52 22.22 52L48.78 52C50.55 52 52 50.55 52 48.78L52 31.05C52 31.04 52 31.03 52 31.02ZM48.52 29.8L50.3 31.08L48.52 32.53L48.52 29.8ZM22.48 29.8L22.48 32.53L20.7 31.08L22.48 29.8ZM20.29 32.41L30.56 40.79L20.29 48.22L20.29 32.41ZM48.78 50.71L22.22 50.71C21.47 50.71 20.82 50.28 20.5 49.66L34.37 39.63C35.04 39.14 35.96 39.14 36.63 39.63L47.67 47.62L41.24 47.62C40.88 47.62 40.59 47.9 40.59 48.26C40.59 48.62 40.88 48.9 41.24 48.9L49.46 48.9L50.5 49.66C50.18 50.28 49.53 50.71 48.78 50.71ZM50.71 48.22L40.44 40.79L50.71 32.41L50.71 48.22ZM38.68 26.69C38.42 26.44 38.02 26.44 37.76 26.69L34.6 29.85L33.23 28.49C32.98 28.23 32.58 28.23 32.32 28.49C32.07 28.74 32.07 29.15 32.32 29.4L34.15 31.22C34.27 31.34 34.43 31.41 34.6 31.41C34.77 31.41 34.94 31.34 35.06 31.22L38.68 27.6C38.93 27.35 38.93 26.94 38.68 26.69ZM35.5 22.48C31.93 22.48 29.02 25.38 29.02 28.95C29.02 32.53 31.93 35.43 35.5 35.43C39.07 35.43 41.98 32.53 41.98 28.96C41.98 25.38 39.07 22.48 35.5 22.48ZM35.5 34.14C32.64 34.14 30.31 31.82 30.31 28.96C30.31 26.09 32.64 23.77 35.5 23.77C38.36 23.77 40.69 26.09 40.69 28.95C40.69 31.82 38.36 34.14 35.5 34.14ZM38.77 47.8C38.65 47.68 38.48 47.62 38.31 47.62C38.14 47.62 37.98 47.68 37.86 47.8C37.74 47.92 37.67 48.09 37.67 48.26C37.67 48.43 37.74 48.6 37.86 48.72C37.98 48.84 38.14 48.9 38.31 48.9C38.48 48.9 38.65 48.84 38.77 48.72C38.89 48.6 38.96 48.43 38.96 48.26C38.96 48.09 38.89 47.92 38.77 47.8Z" />
			</g>
		</g>
	</g>
</svg>