<svg xmlns="http://www.w3.org/2000/svg" viewBox="0 0 100 100" width="100" height="100">
	<style>
		tspan { white-space:pre }
		.shp0 { fill: #dfedff } 
		.shp1 { fill: #0f7bff } 
	</style>
	<g id="How Does It Works?">
		<g id="Create an Account">
			<g id="Icon">
				<path id="Ellipse 2" class="shp0" d="M50 0C77.61 0 100 22.39 100 50C100 77.61 77.61 100 50 100C22.39 100 0 77.61 0 50C0 22.39 22.39 0 50 0Z" />
				<path id="Forma 1" class="shp1" d="M64.2 40.36C64.69 40.36 65.1 39.96 65.1 39.47L65.1 29.7C65.1 28.21 63.89 27 62.4 27L29.7 27C28.21 27 27 28.21 27 29.7L27 70.3C27 71.79 28.21 73 29.7 73L62.4 73C63.89 73 65.1 71.79 65.1 70.3L65.1 63.69C65.1 63.19 64.69 62.79 64.2 62.79C63.7 62.79 63.3 63.19 63.3 63.69L63.3 70.3C63.3 70.8 62.9 71.2 62.4 71.2L29.7 71.2C29.2 71.2 28.8 70.8 28.8 70.3L28.8 29.7C28.8 29.2 29.2 28.8 29.7 28.8L62.4 28.8C62.9 28.8 63.3 29.2 63.3 29.7L63.3 39.47C63.3 39.96 63.7 40.36 64.2 40.36ZM46.05 31.85C41.49 31.85 37.78 35.56 37.78 40.12C37.78 42.48 38.78 44.62 40.38 46.12C40.41 46.16 40.44 46.19 40.47 46.21C41.94 47.56 43.9 48.38 46.05 48.38C48.19 48.38 50.15 47.56 51.62 46.21C51.66 46.19 51.69 46.16 51.72 46.12C53.32 44.62 54.31 42.48 54.31 40.12C54.31 35.56 50.61 31.85 46.05 31.85ZM46.05 46.59C44.58 46.59 43.23 46.09 42.14 45.27C42.93 43.87 44.4 42.99 46.05 42.99C47.69 42.99 49.17 43.87 49.96 45.27C48.87 46.09 47.51 46.59 46.05 46.59ZM44.61 39.76L44.61 39.17C44.61 38.38 45.25 37.74 46.05 37.74C46.84 37.74 47.49 38.38 47.49 39.17L47.49 39.76C47.49 40.55 46.84 41.19 46.05 41.19C45.25 41.19 44.61 40.55 44.61 39.76ZM51.25 43.95C50.59 42.97 49.67 42.2 48.61 41.73C49.03 41.19 49.28 40.5 49.28 39.76L49.28 39.17C49.28 37.39 47.83 35.94 46.05 35.94C44.26 35.94 42.81 37.39 42.81 39.17L42.81 39.76C42.81 40.5 43.07 41.19 43.49 41.73C42.42 42.2 41.5 42.97 40.84 43.95C40.05 42.88 39.58 41.55 39.58 40.12C39.58 36.55 42.48 33.65 46.05 33.65C49.61 33.65 52.52 36.55 52.52 40.12C52.52 41.55 52.05 42.88 51.25 43.95ZM50.9 66.35L46.05 66.35C45.55 66.35 45.15 66.75 45.15 67.25C45.15 67.75 45.55 68.15 46.05 68.15L50.9 68.15C51.4 68.15 51.8 67.75 51.8 67.25C51.8 66.75 51.4 66.35 50.9 66.35ZM50.9 61.32L38.14 61.32C37.64 61.32 37.24 61.72 37.24 62.22C37.24 62.71 37.64 63.12 38.14 63.12L50.9 63.12C51.4 63.12 51.8 62.71 51.8 62.22C51.8 61.72 51.4 61.32 50.9 61.32ZM50.9 56.29L38.14 56.29C37.64 56.29 37.24 56.69 37.24 57.19C37.24 57.68 37.64 58.08 38.14 58.08L50.9 58.08C51.4 58.08 51.8 57.68 51.8 57.19C51.8 56.69 51.4 56.29 50.9 56.29ZM34.94 51.52C34.77 51.35 34.54 51.26 34.3 51.26C34.07 51.26 33.83 51.35 33.67 51.52C33.5 51.69 33.4 51.92 33.4 52.16C33.4 52.39 33.5 52.62 33.67 52.79C33.84 52.96 34.07 53.05 34.3 53.05C34.54 53.05 34.77 52.96 34.94 52.79C35.11 52.62 35.2 52.39 35.2 52.16C35.2 51.92 35.11 51.69 34.94 51.52ZM34.94 56.55C34.77 56.38 34.54 56.29 34.3 56.29C34.07 56.29 33.84 56.38 33.67 56.55C33.5 56.72 33.4 56.95 33.4 57.19C33.4 57.42 33.5 57.66 33.67 57.82C33.84 57.99 34.07 58.08 34.3 58.08C34.54 58.08 34.77 57.99 34.94 57.82C35.11 57.66 35.2 57.42 35.2 57.19C35.2 56.95 35.11 56.72 34.94 56.55ZM34.94 61.58C34.77 61.42 34.54 61.32 34.3 61.32C34.07 61.32 33.84 61.42 33.67 61.58C33.5 61.75 33.4 61.98 33.4 62.22C33.4 62.45 33.5 62.69 33.67 62.85C33.83 63.02 34.07 63.12 34.3 63.12C34.54 63.12 34.77 63.02 34.94 62.85C35.11 62.69 35.2 62.45 35.2 62.22C35.2 61.98 35.11 61.75 34.94 61.58ZM50.9 51.26L38.14 51.26C37.64 51.26 37.24 51.66 37.24 52.16C37.24 52.65 37.64 53.05 38.14 53.05L50.9 53.05C51.4 53.05 51.8 52.65 51.8 52.16C51.8 51.66 51.4 51.26 50.9 51.26ZM71.11 38.71C70.24 38.2 69.22 38.07 68.25 38.33C67.28 38.59 66.46 39.22 65.96 40.09L54.65 59.67C54.59 59.78 54.55 59.9 54.54 60.02L53.74 67.15C53.7 67.5 53.88 67.85 54.19 68.03C54.33 68.11 54.48 68.15 54.64 68.15C54.82 68.15 55.01 68.09 55.17 67.97L60.94 63.72C61.04 63.65 61.13 63.55 61.19 63.44L72.5 43.86C73.54 42.06 72.92 39.75 71.11 38.71ZM55.76 65.31L56.17 61.59L58.77 63.09L55.76 65.31ZM60.08 61.77L56.66 59.79L65.73 44.08L69.16 46.05L60.08 61.77ZM70.94 42.96L70.05 44.5L66.63 42.52L67.52 40.99C67.78 40.53 68.21 40.2 68.72 40.07C69.23 39.93 69.76 40 70.22 40.26C70.67 40.53 71 40.95 71.14 41.46C71.27 41.97 71.2 42.51 70.94 42.96Z" />
			</g>
		</g>
	</g>
</svg>