<svg xmlns="http://www.w3.org/2000/svg" viewBox="0 0 19 14" width="19" height="14">
	<style>
		tspan { white-space:pre }
		.shp0 { fill: #d8d8d8 } 
	</style>
	<g id="Widget">
		<g id="Footer">
			<g id="Social Media">
				<path id="yt" class="shp0" d="M18.67 2.25C18.44 1.18 17.61 0.39 16.62 0.27C14.26 0 11.88 -0.01 9.5 0C7.13 -0.01 4.74 0 2.39 0.27C1.39 0.39 0.57 1.18 0.33 2.25C0 3.77 0 5.43 0 7C0 8.56 0 10.22 0.33 11.74C0.56 12.81 1.39 13.6 2.38 13.72C4.74 14 7.12 14 9.5 14C11.87 14 14.26 14 16.61 13.72C17.61 13.6 18.43 12.81 18.66 11.74C19 10.22 19 8.56 19 7C19 5.43 19 3.77 18.67 2.25ZM7.05 10.11C7.05 7.89 7.05 5.69 7.05 3.47C9.06 4.58 11.06 5.69 13.09 6.8C11.07 7.91 9.07 9.01 7.05 10.11Z" />
			</g>
		</g>
	</g>
</svg>