<svg xmlns="http://www.w3.org/2000/svg" viewBox="0 0 70 70" width="70" height="70">
	<style>
		tspan { white-space:pre }
		.shp0 { fill: #dfedff } 
		.shp1 { fill: #0f7bff } 
	</style>
	<g id="Features">
		<g id="01">
			<g id="Icon">
				<path id="Ellipse 1" class="shp0" d="M35 0C54.33 0 70 15.67 70 35C70 54.33 54.33 70 35 70C15.67 70 0 54.33 0 35C0 15.67 15.67 0 35 0Z" />
				<path id="Forma 1" class="shp1" d="M50.82 25.69L45.31 20.18C45.2 20.06 45.05 20 44.88 20L26.9 20C25.9 20 25.09 20.81 25.09 21.81L25.09 22.97C22.11 24.14 20 27.03 20 30.42C20 30.75 20.27 31.02 20.61 31.02L28 31.02C28.33 31.02 28.6 30.75 28.6 30.42L28.6 23.03C28.6 22.69 28.33 22.42 28 22.42C27.41 22.42 26.85 22.48 26.3 22.6L26.3 21.81C26.3 21.48 26.57 21.21 26.9 21.21L44.28 21.21L44.28 24.9C44.28 25.9 45.09 26.72 46.1 26.72L49.79 26.72L49.79 49.18C49.79 49.52 49.52 49.79 49.18 49.79L26.9 49.79C26.57 49.79 26.3 49.52 26.3 49.18L26.3 44C26.3 43.66 26.03 43.39 25.69 43.39C25.36 43.39 25.09 43.66 25.09 44L25.09 49.18C25.09 50.18 25.9 51 26.9 51L49.18 51C50.19 51 51 50.18 51 49.18L51 26.11C51 25.95 50.94 25.8 50.82 25.69ZM27.39 23.66L27.39 29.81L21.24 29.81C21.53 26.55 24.13 23.95 27.39 23.66ZM46.1 25.51C45.76 25.51 45.49 25.24 45.49 24.9L45.49 22.07L48.93 25.51L46.1 25.51ZM26.12 41.37C26.01 41.26 25.85 41.19 25.69 41.19C25.53 41.19 25.38 41.26 25.26 41.37C25.15 41.48 25.09 41.64 25.09 41.8C25.09 41.95 25.15 42.11 25.26 42.22C25.38 42.34 25.53 42.4 25.69 42.4C25.85 42.4 26.01 42.34 26.12 42.22C26.23 42.11 26.3 41.95 26.3 41.8C26.3 41.64 26.23 41.48 26.12 41.37ZM30.17 24.59C29.83 24.59 29.56 24.86 29.56 25.19L29.56 31.98L22.77 31.98C22.44 31.98 22.17 32.25 22.17 32.59C22.17 37 25.76 40.58 30.17 40.58C34.58 40.58 38.16 37 38.16 32.59C38.16 28.18 34.58 24.59 30.17 24.59ZM30.77 25.83C32.19 25.95 33.48 26.52 34.52 27.38L30.77 31.13L30.77 25.83ZM30.17 39.37C26.63 39.37 23.71 36.65 23.41 33.19L30.17 33.19C30.33 33.19 30.48 33.12 30.59 33.02C30.59 33.02 30.59 33.02 30.59 33.01L35.37 28.24C36.36 29.42 36.95 30.93 36.95 32.59C36.95 36.33 33.91 39.37 30.17 39.37ZM46.52 39.11C45.52 39.11 44.71 39.92 44.71 40.92C44.71 41.18 44.76 41.41 44.85 41.63L41.36 45.12C41.12 45 40.85 44.94 40.57 44.94C40.29 44.94 40.03 45 39.79 45.11L37.48 42.8C37.56 42.59 37.6 42.37 37.6 42.13C37.6 41.13 36.79 40.32 35.79 40.32C34.78 40.32 33.97 41.13 33.97 42.13C33.97 42.41 34.03 42.66 34.14 42.89L31.92 45.12C31.68 45 31.41 44.94 31.13 44.94C30.13 44.94 29.32 45.76 29.32 46.76C29.32 47.76 30.13 48.57 31.13 48.57C32.14 48.57 32.95 47.76 32.95 46.76C32.95 46.48 32.89 46.21 32.77 45.97L34.98 43.76C35.22 43.88 35.5 43.95 35.79 43.95C36.11 43.95 36.42 43.87 36.68 43.71L38.93 45.96C38.82 46.2 38.75 46.47 38.75 46.75C38.75 47.76 39.57 48.57 40.57 48.57C41.57 48.57 42.39 47.76 42.39 46.75C42.39 46.48 42.32 46.22 42.21 45.98L45.67 42.53C45.92 42.66 46.22 42.74 46.52 42.74C47.53 42.74 48.34 41.93 48.34 40.92C48.34 39.92 47.53 39.11 46.52 39.11ZM31.13 47.36C30.8 47.36 30.53 47.09 30.53 46.76C30.53 46.42 30.8 46.15 31.13 46.15C31.3 46.15 31.44 46.22 31.55 46.32C31.56 46.32 31.56 46.33 31.56 46.33C31.56 46.33 31.57 46.33 31.57 46.34C31.68 46.44 31.74 46.59 31.74 46.76C31.74 47.09 31.47 47.36 31.13 47.36ZM35.79 42.74C35.45 42.74 35.18 42.47 35.18 42.13C35.18 41.8 35.45 41.53 35.79 41.53C36.12 41.53 36.39 41.8 36.39 42.13C36.39 42.47 36.12 42.74 35.79 42.74ZM40.57 47.36C40.24 47.36 39.96 47.09 39.96 46.75C39.96 46.42 40.24 46.15 40.57 46.15C40.9 46.15 41.18 46.42 41.18 46.75C41.18 47.09 40.9 47.36 40.57 47.36ZM46.52 41.53C46.19 41.53 45.92 41.26 45.92 40.92C45.92 40.59 46.19 40.32 46.52 40.32C46.86 40.32 47.13 40.59 47.13 40.92C47.13 41.26 46.86 41.53 46.52 41.53ZM43.5 34.23L40.3 34.23C39.97 34.23 39.7 34.5 39.7 34.83C39.7 35.17 39.97 35.44 40.3 35.44L43.5 35.44C43.83 35.44 44.1 35.17 44.1 34.83C44.1 34.5 43.83 34.23 43.5 34.23ZM46.68 34.4C46.57 34.29 46.41 34.23 46.25 34.23C46.1 34.23 45.94 34.29 45.83 34.4C45.71 34.52 45.65 34.67 45.65 34.83C45.65 34.99 45.71 35.15 45.83 35.26C45.94 35.37 46.09 35.44 46.25 35.44C46.41 35.44 46.57 35.37 46.68 35.26C46.79 35.15 46.86 34.99 46.86 34.83C46.86 34.67 46.79 34.52 46.68 34.4ZM47.7 28.41L40.3 28.41C39.97 28.41 39.7 28.69 39.7 29.02C39.7 29.35 39.97 29.63 40.3 29.63L47.7 29.63C48.03 29.63 48.3 29.35 48.3 29.02C48.3 28.69 48.03 28.41 47.7 28.41ZM47.7 31.32L40.3 31.32C39.97 31.32 39.7 31.59 39.7 31.93C39.7 32.26 39.97 32.53 40.3 32.53L47.7 32.53C48.03 32.53 48.3 32.26 48.3 31.93C48.3 31.59 48.03 31.32 47.7 31.32Z" />
			</g>
		</g>
	</g>
</svg>