<svg xmlns="http://www.w3.org/2000/svg" viewBox="0 0 100 100" width="100" height="100">
	<style>
		tspan { white-space:pre }
		.shp0 { fill: #dfedff } 
		.shp1 { fill: #0f7bff } 
	</style>
	<g id="How Does It Works?">
		<g id="See Result">
			<g id="Icon">
				<path id="Ellipse 2" class="shp0" d="M50 0C77.61 0 100 22.39 100 50C100 77.61 77.61 100 50 100C22.39 100 0 77.61 0 50C0 22.39 22.39 0 50 0Z" />
				<path id="Forma 1" class="shp1" d="M50 26.72C48.74 26.72 47.71 27.79 47.71 29.1C47.71 30.41 48.74 31.47 50 31.47C51.26 31.47 52.29 30.41 52.29 29.1C52.29 27.79 51.26 26.72 50 26.72ZM50 29.95C49.55 29.95 49.18 29.57 49.18 29.1C49.18 28.63 49.55 28.24 50 28.24C50.45 28.24 50.82 28.63 50.82 29.1C50.82 29.57 50.45 29.95 50 29.95ZM60.38 41C59.77 38.39 57.42 36.57 54.69 36.57C53.04 36.57 51.39 37.23 50 38.44C48.61 37.23 46.96 36.57 45.31 36.57C42.58 36.57 40.23 38.39 39.61 41C39.28 42.4 39.28 44.65 41.17 47.42C42.87 49.91 45.72 52.26 49.66 54.4C49.87 54.52 50.13 54.52 50.34 54.4C54.28 52.26 57.13 49.91 58.83 47.42C60.72 44.65 60.72 42.4 60.38 41ZM57.63 46.54C56.12 48.76 53.55 50.89 50 52.87C46.45 50.89 43.88 48.76 42.37 46.54C41.13 44.72 40.67 42.93 41.04 41.36C41.5 39.41 43.22 38.1 45.31 38.1C46.79 38.1 48.27 38.78 49.49 40.01C49.77 40.3 50.23 40.3 50.51 40.01C51.73 38.78 53.21 38.1 54.69 38.1C56.78 38.1 58.49 39.41 58.96 41.36C59.33 42.93 58.87 44.72 57.63 46.54ZM44.87 42.02C44.47 42.02 44.14 42.36 44.14 42.78L44.14 43.74C44.14 44.16 44.47 44.5 44.87 44.5C45.28 44.5 45.61 44.16 45.61 43.74L45.61 42.78C45.61 42.36 45.28 42.02 44.87 42.02ZM55.13 42.02C54.72 42.02 54.39 42.36 54.39 42.78L54.39 43.74C54.39 44.16 54.72 44.5 55.13 44.5C55.53 44.5 55.86 44.16 55.86 43.74L55.86 42.78C55.86 42.36 55.53 42.02 55.13 42.02ZM51.75 43.1C51.44 42.82 50.98 42.85 50.71 43.17C50.54 43.37 50.28 43.49 50 43.49C49.72 43.49 49.46 43.37 49.29 43.17C49.02 42.85 48.56 42.82 48.25 43.1C47.95 43.38 47.91 43.86 48.18 44.17C48.63 44.71 49.29 45.01 50 45.01C50.7 45.01 51.37 44.71 51.82 44.17C52.09 43.86 52.05 43.38 51.75 43.1ZM59.42 65.13L40.58 65.13C40.18 65.13 39.85 65.47 39.85 65.89C39.85 66.31 40.18 66.65 40.58 66.65L59.42 66.65C59.82 66.65 60.15 66.31 60.15 65.89C60.15 65.47 59.82 65.13 59.42 65.13ZM59.42 61.1L40.58 61.1C40.18 61.1 39.85 61.45 39.85 61.87C39.85 62.29 40.18 62.63 40.58 62.63L59.42 62.63C59.82 62.63 60.15 62.29 60.15 61.87C60.15 61.45 59.82 61.1 59.42 61.1ZM59.42 57.08L40.58 57.08C40.18 57.08 39.85 57.42 39.85 57.84C39.85 58.26 40.18 58.6 40.58 58.6L59.42 58.6C59.82 58.6 60.15 58.26 60.15 57.84C60.15 57.42 59.82 57.08 59.42 57.08ZM69.27 37.35C69.67 37.35 70 37.01 70 36.59L70 31.82C70 29.25 67.98 27.15 65.5 27.15L61.55 27.15C61.25 26.28 60.45 25.65 59.51 25.65L54.34 25.65C53.92 25.65 53.5 25.5 53.18 25.21C52.3 24.43 51.17 24 50 24C48.83 24 47.7 24.43 46.82 25.21C46.5 25.5 46.08 25.65 45.65 25.65L40.49 25.65C39.55 25.65 38.75 26.28 38.45 27.15L34.5 27.15C32.02 27.15 30 29.25 30 31.82L30 71.33C30 73.91 32.02 76 34.5 76L65.5 76C67.98 76 70 73.91 70 71.33L70 39.64C70 39.22 69.67 38.88 69.27 38.88C68.86 38.88 68.53 39.22 68.53 39.64L68.53 71.33C68.53 73.07 67.17 74.48 65.5 74.48L34.5 74.48C32.83 74.48 31.47 73.07 31.47 71.33L31.47 31.82C31.47 30.09 32.83 28.68 34.5 28.68L38.33 28.68L38.33 30.99L34.54 30.99C34.13 30.99 33.8 31.33 33.8 31.75L33.8 60.76C33.8 61.18 34.13 61.52 34.54 61.52C34.94 61.52 35.27 61.18 35.27 60.76L35.27 32.51L38.41 32.51C38.41 32.52 38.42 32.52 38.42 32.52C38.58 33.07 38.94 33.54 39.41 33.82C39.74 34.02 40.11 34.12 40.49 34.12L59.51 34.12C59.99 34.12 60.46 33.96 60.83 33.65C61.18 33.37 61.46 32.97 61.58 32.52C61.58 32.52 61.59 32.52 61.59 32.51L64.73 32.51L64.73 70.64L35.27 70.64L35.27 63.81C35.27 63.39 34.94 63.05 34.54 63.05C34.13 63.05 33.8 63.39 33.8 63.81L33.8 71.4C33.8 71.82 34.13 72.16 34.54 72.16L65.46 72.16C65.87 72.16 66.2 71.82 66.2 71.4L66.2 31.75C66.2 31.33 65.87 30.99 65.46 30.99L61.67 30.99L61.67 28.68L65.5 28.68C67.17 28.68 68.53 30.09 68.53 31.82L68.53 36.59C68.53 37.01 68.86 37.35 69.27 37.35ZM60.21 31.75C60.21 32.18 59.98 32.6 59.51 32.6C59.51 32.6 40.51 32.6 40.49 32.6C40.03 32.6 39.79 32.18 39.79 31.75L39.79 27.9C39.79 27.5 40.11 27.18 40.49 27.18L45.65 27.18C46.43 27.18 47.18 26.89 47.77 26.37C48.39 25.82 49.18 25.52 50 25.52C50.82 25.52 51.61 25.82 52.23 26.37C52.82 26.89 53.57 27.18 54.34 27.18L59.51 27.18C59.89 27.18 60.21 27.5 60.21 27.9L60.21 31.75L60.21 31.75Z" />
			</g>
		</g>
	</g>
</svg>