<svg xmlns="http://www.w3.org/2000/svg" viewBox="0 0 70 70" width="70" height="70">
	<style>
		tspan { white-space:pre }
		.shp0 { fill: #ffffff;stroke: #dcdcdc } 
		.shp1 { fill: #dcdcdc } 
	</style>
	<g id="Features">
		<g id="Scrool Down">
			<path id="bg" class="shp0" d="M35 0C54.33 0 70 15.67 70 35C70 54.33 54.33 70 35 70C15.67 70 0 54.33 0 35C0 15.67 15.67 0 35 0Z" />
			<path id="Icon" class="shp1" d="M23.38 41.89C22.87 41.39 22.87 40.55 23.38 40.03C23.86 39.52 24.66 39.52 25.15 40.03L34.22 49.47L34.22 18.3C34.22 17.58 34.78 17 35.47 17C36.17 17 36.74 17.58 36.74 18.3L36.74 49.47L45.8 40.03C46.3 39.52 47.11 39.52 47.59 40.03C48.09 40.55 48.09 41.39 47.59 41.89L36.37 53.57C35.88 54.09 35.08 54.09 34.6 53.57L23.38 41.89Z" />
		</g>
	</g>
</svg>