<svg xmlns="http://www.w3.org/2000/svg" viewBox="0 0 100 100" width="100" height="100">
	<style>
		tspan { white-space:pre }
		.shp0 { fill: #dfedff } 
		.shp1 { fill: #cfe4fe } 
		.shp2 { fill: #0f7bff } 
	</style>
	<g id="Pricing">
		<g id="Free">
			<g id="Icon">
				<path id="bg" class="shp0" d="M50 0C77.61 0 100 22.39 100 50C100 77.61 77.61 100 50 100C22.39 100 0 77.61 0 50C0 22.39 22.39 0 50 0Z" />
				<path id="bg" class="shp1" d="M50.5 13C71.21 13 88 29.79 88 50.5C88 71.21 71.21 88 50.5 88C29.79 88 13 71.21 13 50.5C13 29.79 29.79 13 50.5 13Z" />
				<path id="icon" class="shp2" d="M77.99 24.03C77.98 23.97 77.97 23.91 77.96 23.85C77.94 23.78 77.91 23.72 77.88 23.65C77.86 23.62 77.85 23.58 77.83 23.55C77.82 23.53 77.8 23.51 77.78 23.49C77.74 23.44 77.7 23.39 77.65 23.34C77.6 23.29 77.55 23.25 77.49 23.21C77.47 23.19 77.46 23.17 77.44 23.16C77.41 23.14 77.37 23.14 77.33 23.12C77.27 23.09 77.2 23.06 77.13 23.04C77.08 23.02 77.02 23.01 76.96 23.01C76.89 23 76.82 22.99 76.75 23C76.68 23 76.62 23.01 76.56 23.03C76.52 23.04 76.47 23.04 76.43 23.05L23.81 40.99C23.33 41.15 23.01 41.59 23 42.1C22.99 42.6 23.3 43.06 23.77 43.24L48.35 52.68L58.98 77.28C59.17 77.72 59.6 78 60.08 78C60.1 78 60.12 78 60.14 78C60.63 77.97 61.06 77.64 61.22 77.17L77.96 24.54C77.97 24.51 77.97 24.47 77.97 24.43C77.99 24.36 78 24.3 78 24.23C78 24.16 78 24.1 77.99 24.03ZM27.71 42.19L72.34 26.97L48.96 50.35L27.71 42.19ZM59.9 73.39L50.67 52.02L74.19 28.5L59.9 73.39ZM41.79 59.21C41.32 58.75 40.56 58.75 40.09 59.21L23.35 75.96C22.88 76.42 22.88 77.18 23.35 77.65C23.58 77.88 23.89 78 24.2 78C24.5 78 24.81 77.88 25.04 77.65L41.79 60.91C42.25 60.44 42.25 59.68 41.79 59.21ZM44.88 67.59L36.51 75.96C36.04 76.42 36.04 77.18 36.51 77.65C36.74 77.88 37.05 78 37.35 78C37.66 78 37.96 77.88 38.2 77.65L46.57 69.28C47.04 68.81 47.04 68.05 46.57 67.59C46.1 67.12 45.35 67.12 44.88 67.59ZM24.2 64.84C24.5 64.84 24.81 64.73 25.04 64.49L33.41 56.12C33.88 55.65 33.88 54.9 33.41 54.43C32.95 53.96 32.19 53.96 31.72 54.43L23.35 62.8C22.88 63.27 22.88 64.02 23.35 64.49C23.58 64.73 23.89 64.84 24.2 64.84Z" />
			</g>
		</g>
	</g>
</svg>