<svg xmlns="http://www.w3.org/2000/svg" viewBox="0 0 100 100" width="100" height="100">
	<style>
		tspan { white-space:pre }
		.shp0 { fill: #dfedff } 
		.shp1 { fill: #0f7bff } 
	</style>
	<g id="How Does It Works?">
		<g id="Confirm Email">
			<g id="Icon">
				<path id="Ellipse 2" class="shp0" d="M50 0C77.61 0 100 22.39 100 50C100 77.61 77.61 100 50 100C22.39 100 0 77.61 0 50C0 22.39 22.39 0 50 0Z" />
				<path id="Forma 1" class="shp1" d="M43.92 27.27C43.75 27.1 43.51 27 43.27 27C43.03 27 42.79 27.1 42.62 27.27C42.45 27.44 42.35 27.68 42.35 27.92C42.35 28.16 42.45 28.4 42.62 28.57C42.79 28.74 43.03 28.84 43.27 28.84C43.51 28.84 43.75 28.74 43.92 28.57C44.09 28.4 44.19 28.16 44.19 27.92C44.19 27.68 44.09 27.44 43.92 27.27ZM74 44.12C73.98 43.85 73.85 43.59 73.62 43.42L69.04 40.11L69.04 29.75C69.04 28.23 67.81 27 66.29 27L46.87 27C46.37 27 45.96 27.41 45.96 27.92C45.96 28.42 46.37 28.84 46.87 28.84L66.29 28.84C66.8 28.84 67.21 29.25 67.21 29.75L67.21 47.78L56 56.93L53.19 54.89C51.58 53.73 49.42 53.73 47.81 54.89L45 56.93L33.79 47.78L33.79 29.75C33.79 29.25 34.2 28.84 34.71 28.84L39.71 28.84C40.22 28.84 40.63 28.42 40.63 27.92C40.63 27.41 40.22 27 39.71 27L34.71 27C33.19 27 31.96 28.23 31.96 29.75L31.96 40.11L27.38 43.42C27.38 43.42 27.38 43.42 27.38 43.42C27.15 43.59 27 43.86 27 44.17L27 69.41C27 71.94 29.06 74 31.59 74L69.41 74C71.94 74 74 71.94 74 69.41L74 44.17C74 44.15 74 44.13 74 44.12ZM69.04 42.38L71.58 44.21L69.04 46.28L69.04 42.38ZM31.96 42.38L31.96 46.28L29.42 44.21L31.96 42.38ZM28.84 46.1L43.46 58.04L28.84 68.62L28.84 46.1ZM69.41 72.16L31.59 72.16C30.52 72.16 29.6 71.55 29.14 70.67L48.89 56.38C49.85 55.68 51.15 55.68 52.11 56.38L67.84 67.76L58.67 67.76C58.16 67.76 57.75 68.17 57.75 68.68C57.75 69.18 58.16 69.59 58.67 69.59L70.38 69.59L71.86 70.67C71.4 71.55 70.48 72.16 69.41 72.16ZM72.16 68.62L57.54 58.04L72.16 46.1L72.16 68.62ZM55.02 37.95C54.67 37.6 54.08 37.6 53.73 37.95L49.22 42.46L47.27 40.51C46.92 40.15 46.33 40.15 45.98 40.51C45.62 40.87 45.62 41.45 45.98 41.81L48.57 44.41C48.74 44.58 48.98 44.67 49.22 44.67C49.46 44.67 49.7 44.58 49.87 44.41L55.02 39.25C55.38 38.89 55.38 38.31 55.02 37.95ZM50.5 31.96C45.41 31.96 41.28 36.09 41.28 41.18C41.28 46.27 45.41 50.4 50.5 50.4C55.59 50.4 59.72 46.27 59.72 41.18C59.72 36.09 55.59 31.96 50.5 31.96ZM50.5 48.57C46.43 48.57 43.11 45.25 43.11 41.18C43.11 37.11 46.43 33.79 50.5 33.79C54.57 33.79 57.89 37.11 57.89 41.18C57.89 45.25 54.57 48.57 50.5 48.57ZM55.16 68.03C54.99 67.86 54.75 67.76 54.51 67.76C54.27 67.76 54.03 67.86 53.86 68.03C53.69 68.2 53.59 68.43 53.59 68.68C53.59 68.92 53.69 69.15 53.86 69.32C54.03 69.49 54.27 69.59 54.51 69.59C54.75 69.59 54.99 69.49 55.16 69.32C55.33 69.15 55.43 68.92 55.43 68.68C55.43 68.43 55.33 68.2 55.16 68.03Z" />
			</g>
		</g>
	</g>
</svg>