<svg xmlns="http://www.w3.org/2000/svg" viewBox="0 0 18 16" width="18" height="16">
	<style>
		tspan { white-space:pre }
		.shp0 { fill: #d8d8d8 } 
	</style>
	<g id="Widget">
		<g id="Footer">
			<g id="Social Media">
				<path id="twitter" class="shp0" d="M17.47 2.26C17.38 2.29 17.29 2.31 17.2 2.34C16.66 2.48 16.61 2.29 17 1.87C17.18 1.68 17.33 1.48 17.47 1.26C17.77 0.77 17.51 0.55 16.99 0.78C16.81 0.86 16.62 0.94 16.44 1C15.91 1.19 15.15 0.91 14.68 0.59C14.08 0.2 13.41 0 12.65 0C11.58 0 10.68 0.39 9.93 1.18C9.18 1.97 8.8 2.92 8.8 4.04C8.8 4.19 8.81 4.34 8.82 4.5C8.85 4.76 8.44 4.94 7.89 4.86C6.69 4.68 5.55 4.3 4.47 3.72C3.4 3.14 2.46 2.41 1.64 1.53C1.25 1.11 0.72 1.15 0.57 1.71C0.48 2.05 0.44 2.41 0.44 2.77C0.44 3.47 0.6 4.11 0.91 4.7C1.06 4.99 1.24 5.26 1.45 5.5C1.79 5.9 1.74 6.13 1.26 5.99C0.77 5.85 0.42 5.64 0.42 5.65C0.42 5.66 0.42 5.67 0.42 5.67C0.42 6.65 0.71 7.51 1.29 8.24C1.65 8.7 2.07 9.05 2.54 9.3C3.05 9.56 3.28 9.7 3 9.74C2.83 9.76 2.66 9.77 2.49 9.77C2.37 9.77 2.25 9.77 2.12 9.76C1.92 9.74 1.89 10.18 2.19 10.67C2.43 11.06 2.74 11.41 3.12 11.71C3.5 12.01 3.92 12.23 4.36 12.36C4.9 12.52 5 12.81 4.52 13.11C3.34 13.86 2.02 14.24 0.58 14.24C0.42 14.24 0.27 14.23 0.12 14.23C-0.14 14.21 0.03 14.45 0.53 14.72C2.08 15.57 3.76 16 5.56 16C6.93 16 8.21 15.77 9.41 15.32C10.61 14.86 11.63 14.26 12.48 13.49C13.33 12.73 14.06 11.85 14.68 10.86C15.29 9.87 15.75 8.83 16.05 7.76C16.35 6.68 16.5 5.6 16.5 4.51C16.5 4.41 16.5 4.33 16.5 4.25C16.5 4.1 16.86 3.71 17.27 3.31C17.46 3.13 17.63 2.94 17.8 2.74C18.17 2.3 18.01 2.1 17.47 2.26Z" />
			</g>
		</g>
	</g>
</svg>