<svg xmlns="http://www.w3.org/2000/svg" viewBox="0 0 70 70" width="70" height="70">
	<style>
		tspan { white-space:pre }
		.shp0 { fill: #f5dfff } 
		.shp1 { fill: #af00ff } 
	</style>
	<g id="Features">
		<g id="02">
			<g id="Icon">
				<path id="Ellipse 1" class="shp0" d="M35 0C54.33 0 70 15.67 70 35C70 54.33 54.33 70 35 70C15.67 70 0 54.33 0 35C0 15.67 15.67 0 35 0Z" />
				<path id="Forma 1" class="shp1" d="M50.6 35.2L46.36 28.72C46.03 28.22 45.47 27.92 44.87 27.92L26.15 27.92C25.54 27.92 24.99 28.22 24.66 28.72L20.4 35.19C19.97 35.86 20.03 36.73 20.56 37.32L34.17 52.41C34.51 52.78 34.99 53 35.5 53C35.5 53 35.5 53 35.5 53C36.01 53 36.49 52.78 36.83 52.41L50.44 37.32C50.97 36.73 51.03 35.86 50.6 35.2ZM44.01 29.43L40.44 34.88L36.87 29.43L44.01 29.43ZM39.04 35.51L31.96 35.51L35.5 30.11L39.04 35.51ZM34.13 29.43L30.57 34.86L27.01 29.43L34.13 29.43ZM25.6 30.05L29.18 35.51L22.01 35.51L25.6 30.05ZM22.33 37.01L30 37.01L34.05 50.01L22.33 37.01ZM35.5 49.55L31.59 37.01L39.41 37.01L35.5 49.55ZM36.95 50.01L41 37.02L48.67 37.02L36.95 50.01ZM41.84 35.51L45.41 30.05L48.99 35.51L41.84 35.51ZM18.31 35.51L16.76 35.51C16.34 35.51 16 35.85 16 36.26C16 36.68 16.34 37.01 16.76 37.01L18.31 37.01C18.73 37.01 19.07 36.68 19.07 36.26C19.07 35.85 18.73 35.51 18.31 35.51ZM54.24 35.51L52.69 35.51C52.27 35.51 51.93 35.85 51.93 36.26C51.93 36.68 52.27 37.01 52.69 37.01L54.24 37.01C54.66 37.01 55 36.68 55 36.26C55 35.85 54.66 35.51 54.24 35.51ZM49.3 22.64C49 22.35 48.52 22.35 48.22 22.64L45.69 25.14C45.39 25.44 45.39 25.92 45.69 26.21C45.84 26.36 46.03 26.43 46.23 26.43C46.42 26.43 46.62 26.36 46.77 26.21L49.3 23.71C49.6 23.42 49.6 22.94 49.3 22.64ZM25.34 25.13L22.81 22.63C22.51 22.34 22.03 22.34 21.73 22.63C21.44 22.92 21.44 23.4 21.73 23.7L24.26 26.2C24.41 26.34 24.61 26.42 24.8 26.42C25 26.42 25.19 26.34 25.34 26.2C25.64 25.9 25.64 25.42 25.34 25.13ZM35.52 17C35.1 17 34.76 17.34 34.76 17.75L34.76 22.66C34.76 23.07 35.1 23.41 35.52 23.41C35.94 23.41 36.28 23.07 36.28 22.66L36.28 17.75C36.28 17.34 35.94 17 35.52 17ZM36.06 24.67C35.92 24.53 35.72 24.45 35.52 24.45C35.32 24.45 35.12 24.53 34.98 24.67C34.84 24.81 34.76 25 34.76 25.2C34.76 25.4 34.84 25.59 34.98 25.73C35.12 25.87 35.32 25.95 35.52 25.95C35.72 25.95 35.92 25.87 36.06 25.73C36.2 25.59 36.28 25.4 36.28 25.2C36.28 25 36.2 24.81 36.06 24.67Z" />
			</g>
		</g>
	</g>
</svg>