<svg xmlns="http://www.w3.org/2000/svg" viewBox="0 0 10 20" width="10" height="20">
	<style>
		tspan { white-space:pre }
		.shp0 { fill: #ffffff } 
	</style>
	<g id="Widget">
		<g id="Footer">
			<g id="Social Media">
				<path id="fb" class="shp0" d="M9.28 0L7.04 0C5.32 0 4.09 0.38 3.34 1.13C2.6 1.89 2.22 3 2.22 4.48L2.22 5.88C2.22 6.25 1.9 6.55 1.5 6.55L0.73 6.55C0.33 6.55 0 6.85 0 7.22L0 9.33C0 9.7 0.33 10 0.73 10L1.5 10C1.9 10 2.22 10.3 2.22 10.67L2.22 19.33C2.22 19.7 2.54 20 2.94 20L5.95 20C6.35 20 6.67 19.7 6.67 19.33L6.67 10.67C6.67 10.3 6.99 10 7.39 10L8.91 10C9.31 10 9.67 9.7 9.71 9.33L9.95 7.22C9.99 6.85 9.7 6.55 9.3 6.55L7.39 6.55C6.99 6.55 6.67 6.25 6.67 5.88L6.67 4.83C6.67 4.57 6.68 4.37 6.71 4.23C6.74 4.09 6.79 3.95 6.89 3.81C6.98 3.67 7.13 3.58 7.33 3.52C7.53 3.47 7.81 3.44 8.15 3.44L9.28 3.44C9.67 3.44 10 3.14 10 2.77L10 0.67C10 0.3 9.67 0 9.28 0Z" />
			</g>
		</g>
	</g>
</svg>