<svg xmlns="http://www.w3.org/2000/svg" viewBox="0 0 45 45" width="45" height="45">
	<style>
		tspan { white-space:pre }
		.shp0 { fill: #ffffff } 
		.shp1 { fill: #0f7bff } 
	</style>
	<g id="Scroll">
		<path id="bg" class="shp0" d="M3 0L42 0C43.66 0 45 1.34 45 3L45 42C45 43.66 43.66 45 42 45L3 45C1.34 45 0 43.66 0 42L0 3C0 1.34 1.34 0 3 0Z" />
		<path id="Icon" class="shp1" d="M14.26 18.84C13.91 19.17 13.91 19.71 14.26 20.05C14.58 20.38 15.13 20.38 15.46 20.05L21.64 13.92L21.64 34.15C21.64 34.62 22.02 35 22.49 35C22.97 35 23.36 34.62 23.36 34.15L23.36 13.92L29.53 20.05C29.87 20.38 30.42 20.38 30.74 20.05C31.09 19.71 31.09 19.16 30.74 18.84L23.1 11.25C22.77 10.92 22.23 10.92 21.9 11.25L14.26 18.84Z" />
	</g>
</svg>