<svg xmlns="http://www.w3.org/2000/svg" viewBox="0 0 100 100" width="100" height="100">
	<style>
		tspan { white-space:pre }
		.shp0 { fill: #dfedff } 
		.shp1 { fill: #cfe4fe } 
		.shp2 { fill: #0f7bff } 
	</style>
	<g id="Pricing">
		<g id="Premium">
			<g id="Icon">
				<path id="bg" class="shp0" d="M50 0C77.61 0 100 22.39 100 50C100 77.61 77.61 100 50 100C22.39 100 0 77.61 0 50C0 22.39 22.39 0 50 0Z" />
				<path id="bg" class="shp1" d="M50.5 13C71.21 13 88 29.79 88 50.5C88 71.21 71.21 88 50.5 88C29.79 88 13 71.21 13 50.5C13 29.79 29.79 13 50.5 13Z" />
				<path id="icon" class="shp2" d="M80.77 21.24C80.7 20.71 80.29 20.3 79.76 20.23C75.02 19.65 70.12 20.16 65.6 21.71C61.08 23.25 56.91 25.85 53.53 29.22L45.82 36.9L34.68 38.33C34.43 38.37 34.19 38.48 34.01 38.66L23.28 49.36C22.98 49.66 22.87 50.1 22.99 50.51C23.12 50.92 23.47 51.23 23.89 51.3L32 52.8L33.6 54.39L30.2 56.22C29.88 56.4 29.66 56.71 29.61 57.07C29.56 57.43 29.68 57.79 29.94 58.05L42.81 70.88C43.03 71.1 43.32 71.22 43.63 71.22C43.68 71.22 43.74 71.21 43.79 71.2C44.16 71.15 44.47 70.93 44.65 70.61L46.48 67.23L48.08 68.82L49.58 76.9C49.66 77.32 49.97 77.67 50.38 77.79C50.49 77.83 50.6 77.85 50.72 77.85C51.02 77.85 51.32 77.73 51.54 77.51L62.27 66.82C62.45 66.63 62.57 66.4 62.6 66.15L64.04 55.06L71.75 47.37C75.13 44.01 77.73 39.84 79.29 35.34C80.84 30.84 81.35 25.96 80.77 21.24ZM32.18 50.49L26.47 49.44L35.37 40.57L43.14 39.57L32.18 50.49ZM43.35 68.16L32.67 57.51L35.31 56.09L44.78 65.53L43.35 68.16ZM60.35 65.46L51.46 74.33L50.4 68.64L61.36 57.73L60.35 65.46ZM70.11 45.74L49.15 66.63L34.2 51.73L55.16 30.85C58.21 27.82 61.95 25.46 66.01 24.01C66.53 26.7 67.85 29.19 69.81 31.15C71.77 33.1 74.28 34.41 76.97 34.94C75.52 38.98 73.16 42.71 70.11 45.74ZM77.67 32.72C75.33 32.32 73.14 31.21 71.45 29.52C69.75 27.83 68.63 25.65 68.23 23.32C71.59 22.42 75.11 22.11 78.57 22.42C78.88 25.87 78.57 29.38 77.67 32.72ZM54.03 36.98C51.3 39.7 51.3 44.14 54.03 46.87C55.4 48.23 57.2 48.91 59 48.91C60.8 48.91 62.59 48.23 63.96 46.87L63.96 46.87C66.7 44.14 66.7 39.7 63.96 36.98C61.23 34.25 56.77 34.25 54.03 36.98ZM62.33 45.24C60.49 47.06 57.51 47.06 55.67 45.24C53.84 43.41 53.84 40.43 55.67 38.61C56.59 37.69 57.79 37.23 59 37.23C60.2 37.23 61.41 37.69 62.33 38.61C64.16 40.43 64.16 43.41 62.33 45.24ZM35.06 65.99C34.61 65.54 33.88 65.54 33.43 65.99L23.5 75.88C23.05 76.33 23.05 77.06 23.5 77.51C23.73 77.73 24.02 77.85 24.32 77.85C24.61 77.85 24.91 77.73 25.14 77.51L35.06 67.62C35.52 67.17 35.52 66.44 35.06 65.99ZM36.59 69.14L32.12 73.6C31.67 74.05 31.67 74.78 32.12 75.23C32.34 75.45 32.64 75.56 32.94 75.56C33.23 75.56 33.53 75.45 33.75 75.23L38.23 70.77C38.68 70.32 38.68 69.59 38.23 69.14C37.78 68.69 37.04 68.69 36.59 69.14ZM30.55 75.63C30.07 75.63 29.63 75.94 29.46 76.4C29.3 76.86 29.45 77.39 29.84 77.69C30.23 78 30.8 78.02 31.21 77.73C31.65 77.43 31.83 76.84 31.62 76.35C31.45 75.92 31.01 75.63 30.55 75.63ZM31.62 76.35C31.65 76.41 31.59 76.28 31.62 76.35L31.62 76.35ZM27.28 78.42L26.66 79.03C26.21 79.48 26.21 80.21 26.66 80.66C26.89 80.89 27.19 81 27.48 81C27.78 81 28.07 80.89 28.3 80.66L28.92 80.05C29.37 79.6 29.37 78.87 28.92 78.42C28.46 77.97 27.73 77.97 27.28 78.42ZM26.45 68.27C25.99 67.82 25.26 67.82 24.81 68.27L20.34 72.73C19.88 73.18 19.88 73.91 20.34 74.36C20.56 74.58 20.86 74.69 21.15 74.69C21.45 74.69 21.75 74.58 21.97 74.36L26.45 69.9C26.9 69.45 26.9 68.72 26.45 68.27ZM28.29 67.83C28.76 67.71 29.11 67.3 29.16 66.82C29.21 66.35 28.95 65.89 28.53 65.68C28.08 65.46 27.52 65.55 27.18 65.91C26.81 66.3 26.75 66.9 27.05 67.35C27.04 67.33 27.03 67.32 27.05 67.35C27.07 67.38 27.06 67.37 27.05 67.35C27.32 67.75 27.82 67.94 28.29 67.83ZM31.28 65.08L31.9 64.46C32.35 64.01 32.35 63.28 31.9 62.83C31.45 62.38 30.71 62.38 30.26 62.83L29.65 63.45C29.2 63.9 29.2 64.63 29.65 65.08C29.87 65.3 30.17 65.42 30.47 65.42C30.76 65.42 31.06 65.3 31.28 65.08Z" />
			</g>
		</g>
	</g>
</svg>