<svg xmlns="http://www.w3.org/2000/svg" viewBox="0 0 108 74" width="108" height="74">
	<style>
		tspan { white-space:pre }
		.shp0 { fill: #edf5ff } 
		.shp1 { fill: #ebf9ff } 
	</style>
	<g id="How Does It Works?">
		<g id="Title">
			<path id="1" class="shp0" d="M4.49 48.83L39.17 12.81C44.92 6.84 54.41 6.66 60.38 12.41C66.35 18.16 66.53 27.65 60.78 33.62L26.1 69.64C20.36 75.61 10.86 75.79 4.89 70.04C-1.08 64.29 -1.26 54.8 4.49 48.83Z" />
			<path id="2" class="shp1" d="M47.49 40.83L82.17 4.81C87.92 -1.16 97.41 -1.34 103.38 4.41C109.35 10.16 109.53 19.65 103.78 25.62L69.1 61.64C63.36 67.61 53.86 67.79 47.89 62.04C41.92 56.29 41.74 46.8 47.49 40.83Z" />
		</g>
	</g>
</svg>